<svg width="25" height="25" viewBox="0 0 25 25" fill="none" xmlns="http://www.w3.org/2000/svg">
<path d="M12.3522 3.92399C12.4315 3.83691 12.5685 3.83691 12.6478 3.92399L14.2771 5.71227C14.3298 5.77003 14.4112 5.79186 14.4857 5.76815L16.7908 5.0341C16.9031 4.99836 17.0217 5.06687 17.0469 5.18194L17.5638 7.54529C17.5805 7.62163 17.6401 7.68125 17.7164 7.69794L20.0798 8.21482C20.1949 8.23998 20.2634 8.35865 20.2276 8.47089L19.4936 10.776C19.4699 10.8505 19.4917 10.9319 19.5494 10.9846L21.3377 12.6139C21.4248 12.6932 21.4248 12.8302 21.3377 12.9096L19.5494 14.5389C19.4917 14.5915 19.4699 14.6729 19.4936 14.7474L20.2276 17.0526C20.2634 17.1648 20.1949 17.2835 20.0798 17.3086L17.7164 17.8255C17.6401 17.8422 17.5805 17.9018 17.5638 17.9781L17.0469 20.3415C17.0217 20.4566 16.9031 20.5251 16.7908 20.4893L14.4857 19.7553C14.4112 19.7316 14.3298 19.7534 14.2771 19.8112L12.6478 21.5995C12.5685 21.6865 12.4315 21.6865 12.3522 21.5995L10.7229 19.8112C10.6702 19.7534 10.5888 19.7316 10.5143 19.7553L8.20917 20.4893C8.09693 20.5251 7.97827 20.4566 7.9531 20.3415L7.43623 17.9781C7.41953 17.9018 7.35991 17.8422 7.28357 17.8255L4.92022 17.3086C4.80515 17.2835 4.73664 17.1648 4.77238 17.0526L5.50643 14.7474C5.53014 14.6729 5.50832 14.5915 5.45056 14.5389L3.66227 12.9096C3.5752 12.8302 3.5752 12.6932 3.66227 12.6139L5.45056 10.9846C5.50832 10.9319 5.53014 10.8505 5.50643 10.776L4.77238 8.47089C4.73664 8.35865 4.80515 8.23998 4.92022 8.21482L7.28357 7.69794C7.35991 7.68125 7.41953 7.62163 7.43623 7.54529L7.9531 5.18194C7.97827 5.06687 8.09693 4.99836 8.20917 5.0341L10.5143 5.76815C10.5888 5.79186 10.6702 5.77003 10.7229 5.71227L12.3522 3.92399Z" stroke="#624BC3" stroke-width="2"/>
</svg>
