<svg width="160" height="42" viewBox="0 0 160 42" fill="none" xmlns="http://www.w3.org/2000/svg">
<path d="M7.824 24.02H2.96L2.064 26.5H0.528L4.56 15.412H6.24L10.256 26.5H8.72L7.824 24.02ZM7.408 22.836L5.392 17.204L3.376 22.836H7.408ZM13.4693 19.364C13.7679 18.8413 14.2053 18.4147 14.7812 18.084C15.3573 17.7533 16.0133 17.588 16.7493 17.588C17.5386 17.588 18.2479 17.7747 18.8773 18.148C19.5066 18.5213 20.0026 19.0493 20.3653 19.732C20.7279 20.404 20.9093 21.188 20.9093 22.084C20.9093 22.9693 20.7279 23.7587 20.3653 24.452C20.0026 25.1453 19.5012 25.684 18.8612 26.068C18.2319 26.452 17.5279 26.644 16.7493 26.644C15.9919 26.644 15.3253 26.4787 14.7493 26.148C14.1839 25.8173 13.7573 25.396 13.4693 24.884V26.5H12.0133V14.66H13.4693V19.364ZM19.4213 22.084C19.4213 21.4227 19.2879 20.8467 19.0213 20.356C18.7546 19.8653 18.3919 19.492 17.9333 19.236C17.4853 18.98 16.9893 18.852 16.4453 18.852C15.9119 18.852 15.4159 18.9853 14.9573 19.252C14.5093 19.508 14.1466 19.8867 13.8693 20.388C13.6026 20.8787 13.4693 21.4493 13.4693 22.1C13.4693 22.7613 13.6026 23.3427 13.8693 23.844C14.1466 24.3347 14.5093 24.7133 14.9573 24.98C15.4159 25.236 15.9119 25.364 16.4453 25.364C16.9893 25.364 17.4853 25.236 17.9333 24.98C18.3919 24.7133 18.7546 24.3347 19.0213 23.844C19.2879 23.3427 19.4213 22.756 19.4213 22.084ZM30.6018 17.732V26.5H29.1458V25.204C28.8684 25.652 28.4791 26.004 27.9778 26.26C27.4871 26.5053 26.9431 26.628 26.3458 26.628C25.6631 26.628 25.0498 26.4893 24.5058 26.212C23.9618 25.924 23.5298 25.4973 23.2098 24.932C22.9004 24.3667 22.7458 23.6787 22.7458 22.868V17.732H24.1858V22.676C24.1858 23.54 24.4044 24.2067 24.8418 24.676C25.2791 25.1347 25.8764 25.364 26.6338 25.364C27.4124 25.364 28.0258 25.124 28.4738 24.644C28.9218 24.164 29.1458 23.4653 29.1458 22.548V17.732H30.6018ZM45.1337 15.348L41.5018 22.292V26.5H40.0458V22.292L36.3978 15.348H38.0138L40.7658 20.996L43.5178 15.348H45.1337ZM46.1255 22.084C46.1255 21.188 46.3068 20.404 46.6695 19.732C47.0322 19.0493 47.5282 18.5213 48.1575 18.148C48.7975 17.7747 49.5068 17.588 50.2855 17.588C51.0535 17.588 51.7202 17.7533 52.2855 18.084C52.8508 18.4147 53.2722 18.8307 53.5495 19.332V17.732H55.0215V26.5H53.5495V24.868C53.2615 25.38 52.8295 25.8067 52.2535 26.148C51.6882 26.4787 51.0268 26.644 50.2695 26.644C49.4908 26.644 48.7868 26.452 48.1575 26.068C47.5282 25.684 47.0322 25.1453 46.6695 24.452C46.3068 23.7587 46.1255 22.9693 46.1255 22.084ZM53.5495 22.1C53.5495 21.4387 53.4162 20.8627 53.1495 20.372C52.8828 19.8813 52.5202 19.508 52.0615 19.252C51.6135 18.9853 51.1175 18.852 50.5735 18.852C50.0295 18.852 49.5335 18.98 49.0855 19.236C48.6375 19.492 48.2802 19.8653 48.0135 20.356C47.7468 20.8467 47.6135 21.4227 47.6135 22.084C47.6135 22.756 47.7468 23.3427 48.0135 23.844C48.2802 24.3347 48.6375 24.7133 49.0855 24.98C49.5335 25.236 50.0295 25.364 50.5735 25.364C51.1175 25.364 51.6135 25.236 52.0615 24.98C52.5202 24.7133 52.8828 24.3347 53.1495 23.844C53.4162 23.3427 53.5495 22.7613 53.5495 22.1ZM61.834 17.572C62.4953 17.572 63.0927 17.716 63.626 18.004C64.1593 18.2813 64.5753 18.7027 64.874 19.268C65.1833 19.8333 65.338 20.5213 65.338 21.332V26.5H63.898V21.54C63.898 20.6653 63.6793 19.9987 63.242 19.54C62.8047 19.0707 62.2073 18.836 61.45 18.836C60.682 18.836 60.0687 19.076 59.61 19.556C59.162 20.036 58.938 20.7347 58.938 21.652V26.5H57.482V14.66H58.938V18.98C59.226 18.532 59.6207 18.1853 60.122 17.94C60.634 17.6947 61.2047 17.572 61.834 17.572ZM75.2684 17.732L69.9884 30.628H68.4844L70.2124 26.404L66.6764 17.732H68.2924L71.0444 24.836L73.7644 17.732H75.2684ZM76.188 22.084C76.188 21.188 76.3693 20.404 76.732 19.732C77.0947 19.0493 77.5907 18.5213 78.22 18.148C78.86 17.7747 79.5693 17.588 80.348 17.588C81.116 17.588 81.7827 17.7533 82.348 18.084C82.9133 18.4147 83.3347 18.8307 83.612 19.332V17.732H85.084V26.5H83.612V24.868C83.324 25.38 82.892 25.8067 82.316 26.148C81.7507 26.4787 81.0893 26.644 80.332 26.644C79.5533 26.644 78.8493 26.452 78.22 26.068C77.5907 25.684 77.0947 25.1453 76.732 24.452C76.3693 23.7587 76.188 22.9693 76.188 22.084ZM83.612 22.1C83.612 21.4387 83.4787 20.8627 83.212 20.372C82.9453 19.8813 82.5827 19.508 82.124 19.252C81.676 18.9853 81.18 18.852 80.636 18.852C80.092 18.852 79.596 18.98 79.148 19.236C78.7 19.492 78.3427 19.8653 78.076 20.356C77.8093 20.8467 77.676 21.4227 77.676 22.084C77.676 22.756 77.8093 23.3427 78.076 23.844C78.3427 24.3347 78.7 24.7133 79.148 24.98C79.596 25.236 80.092 25.364 80.636 25.364C81.18 25.364 81.676 25.236 82.124 24.98C82.5827 24.7133 82.9453 24.3347 83.212 23.844C83.4787 23.3427 83.612 22.7613 83.612 22.1Z" fill="white"/>
<path d="M99 19L103 23L107 19" stroke="white" stroke-width="2" stroke-linecap="round" stroke-linejoin="round"/>
<g clip-path="url(#clip0_149_9246)">
<g clip-path="url(#clip1_149_9246)">
<mask id="mask0_149_9246" style="mask-type:luminance" maskUnits="userSpaceOnUse" x="119" y="1" width="40" height="40">
<path d="M159 21C159 9.9543 150.046 1 139 1C127.954 1 119 9.9543 119 21C119 32.0457 127.954 41 139 41C150.046 41 159 32.0457 159 21Z" fill="white"/>
</mask>
<g mask="url(#mask0_149_9246)">
<path d="M159 1H119V41H159V1Z" fill="#EDD75A"/>
<g filter="url(#filter0_f_149_9246)">
<path d="M157.605 37.3319L173.212 34.5322L185.543 23.4293L149.912 -16.1431L128.302 3.31454L131.24 14.6786L155.451 20.2081L157.605 37.3319Z" fill="#73B06F"/>
</g>
<g style="mix-blend-mode:overlay" filter="url(#filter1_f_149_9246)">
<path d="M132.203 26.5662L139.841 49.1583L170.125 52.7132L192.628 10.3988L151.968 -7.72537L147.025 8.59251L164.931 6.79709L175.287 31.7286L132.203 26.5662Z" fill="#0C8F8F"/>
</g>
</g>
</g>
<g filter="url(#filter2_d_149_9246)">
<path d="M135.952 24.372H131.504L130.768 26.5H128.416L132.432 15.316H135.04L139.056 26.5H136.688L135.952 24.372ZM135.344 22.58L133.728 17.908L132.112 22.58H135.344ZM149.437 15.332L145.661 22.612V26.5H143.421V22.612L139.629 15.332H142.157L144.557 20.436L146.941 15.332H149.437Z" fill="white"/>
</g>
</g>
<rect x="118.5" y="0.5" width="41" height="41" rx="20.5" stroke="#F2F2F2"/>
<defs>
<filter id="filter0_f_149_9246" x="117.802" y="-26.6431" width="78.2411" height="74.4751" filterUnits="userSpaceOnUse" color-interpolation-filters="sRGB">
<feFlood flood-opacity="0" result="BackgroundImageFix"/>
<feBlend mode="normal" in="SourceGraphic" in2="BackgroundImageFix" result="shape"/>
<feGaussianBlur stdDeviation="5.25" result="effect1_foregroundBlur_149_9246"/>
</filter>
<filter id="filter1_f_149_9246" x="121.703" y="-18.2256" width="81.4259" height="81.439" filterUnits="userSpaceOnUse" color-interpolation-filters="sRGB">
<feFlood flood-opacity="0" result="BackgroundImageFix"/>
<feBlend mode="normal" in="SourceGraphic" in2="BackgroundImageFix" result="shape"/>
<feGaussianBlur stdDeviation="5.25" result="effect1_foregroundBlur_149_9246"/>
</filter>
<filter id="filter2_d_149_9246" x="120.416" y="8.31592" width="37.0211" height="27.1841" filterUnits="userSpaceOnUse" color-interpolation-filters="sRGB">
<feFlood flood-opacity="0" result="BackgroundImageFix"/>
<feColorMatrix in="SourceAlpha" type="matrix" values="0 0 0 0 0 0 0 0 0 0 0 0 0 0 0 0 0 0 127 0" result="hardAlpha"/>
<feOffset dy="1"/>
<feGaussianBlur stdDeviation="4"/>
<feComposite in2="hardAlpha" operator="out"/>
<feColorMatrix type="matrix" values="0 0 0 0 0 0 0 0 0 0 0 0 0 0 0 0 0 0 0.56 0"/>
<feBlend mode="normal" in2="BackgroundImageFix" result="effect1_dropShadow_149_9246"/>
<feBlend mode="normal" in="SourceGraphic" in2="effect1_dropShadow_149_9246" result="shape"/>
</filter>
<clipPath id="clip0_149_9246">
<rect x="119" y="1" width="40" height="40" rx="20" fill="white"/>
</clipPath>
<clipPath id="clip1_149_9246">
<rect width="40" height="40" fill="white" transform="translate(119 1)"/>
</clipPath>
</defs>
</svg>
