<svg width="196" height="80" viewBox="0 0 196 80" fill="none" xmlns="http://www.w3.org/2000/svg">
<g filter="url(#filter0_d_93_3861)">
<path d="M37.0422 20.7474C34.9889 21.5201 32.9602 22.2836 30.9546 23.037C30.8577 23.2371 30.7884 23.4218 30.7484 23.5934C34.4909 22.1114 37.9749 20.7671 41.1981 19.5598C41.2422 19.5191 41.302 19.4128 41.3739 19.2375C41.3984 19.1812 41.4017 19.1472 41.3861 19.1343C41.3739 19.1255 41.3359 19.1343 41.27 19.1567C39.8676 19.6841 38.4767 20.2075 37.0969 20.7268L37.0422 20.7474Z" fill="white"/>
<path d="M36.5467 20.0683C36.6061 19.9423 36.7259 19.8234 36.9061 19.7108C37.0921 19.5925 37.2968 19.5133 37.5215 19.4734C37.6104 19.4587 37.6615 19.4527 37.674 19.4586C37.6744 19.4587 37.6747 19.4589 37.6749 19.4591C37.6753 19.4595 37.676 19.4605 37.6759 19.4611C37.6758 19.4614 37.6757 19.4617 37.6756 19.4621C37.6754 19.4626 37.6751 19.4632 37.6748 19.4639C37.6703 19.4734 37.6256 19.4975 37.5388 19.5321C37.1197 19.7043 36.8853 19.8396 36.8369 19.9425C36.7918 20.0382 36.8143 20.1075 36.9035 20.1495C36.9528 20.1727 37.0044 20.1804 37.057 20.1713C37.0947 20.1659 37.1191 20.164 37.1273 20.1646C37.1301 20.1724 37.1344 20.1781 37.1411 20.1845C37.134 20.1927 37.1163 20.2164 37.0896 20.2554C36.9463 20.4424 36.7946 20.4979 36.6302 20.4205C36.4947 20.3567 36.4661 20.2394 36.5467 20.0683Z" fill="white"/>
<path fill-rule="evenodd" clip-rule="evenodd" d="M43.9842 36.1611C44.5249 36.1611 45.0502 35.9513 45.5601 35.5323C45.7073 35.4077 45.7824 34.957 45.7824 34.1752C45.7824 33.7003 45.6606 31.7929 45.4159 28.4499C45.1724 25.1074 45.0536 23.1374 45.0536 22.5366C45.0536 21.9925 44.9664 21.5485 44.7972 21.1949C44.7972 21.0044 44.9531 20.5353 45.2721 19.7882C45.3067 19.6973 45.3379 19.6531 45.3725 19.6531C45.4071 19.6531 45.4472 19.7035 45.4914 19.804C45.5822 19.9975 45.7915 20.5295 46.1197 21.3988C46.4578 22.3052 46.6642 22.8589 46.7296 23.0619C46.7638 23.2341 46.783 23.3529 46.783 23.418C46.783 23.6686 46.5454 23.5222 46.0696 22.9777C46.0138 22.8997 45.9854 22.9335 45.9854 23.0811C45.9854 23.1149 46.0922 24.6004 46.3077 27.5427C46.5203 30.4824 46.6296 32.2365 46.6296 32.8023C46.6296 34.4412 46.3356 35.7329 45.7482 36.6705C45.25 37.4581 44.665 37.855 43.9937 37.8588V37.8667C43.759 37.9005 43.5247 37.9017 43.2904 37.8667V37.8588C43.068 37.8584 42.847 37.8331 42.6274 37.7827C42.6804 38.5066 42.741 39.3331 42.8094 40.2621C43.1161 44.4204 43.2687 46.7128 43.2687 47.1411C43.2687 48.4548 43.0658 49.6145 42.6593 50.6216C42.5746 50.8252 42.5061 50.9716 42.4557 51.0626C42.3751 51.1909 42.3275 51.2065 42.3119 51.1122C42.2876 51.0157 42.2964 50.8028 42.3371 50.4743C42.3873 50.021 42.4123 49.4957 42.4123 48.8951C42.4123 48.3604 42.2467 45.7655 41.9149 41.1089C41.8125 39.6697 41.7262 38.4302 41.6558 37.3908C41.4209 37.2545 41.1875 37.0884 40.9556 36.8923C40.3189 36.2955 39.6803 35.7014 39.0393 35.1051L38.8263 34.9069C38.7354 34.829 38.6791 34.7881 38.657 34.7881C38.6287 34.7881 38.6504 34.8727 38.7258 35.0412C38.9856 35.6416 39.1132 36.0697 39.1132 36.3236C39.1132 37.2805 38.8384 38.0026 38.2847 38.4938C37.8878 38.8503 36.9935 39.3251 35.5955 39.9134C34.7379 40.2803 34.095 40.5676 33.6705 40.7686C32.8233 41.163 32.2384 41.4853 31.9223 41.735C31.3407 42.1882 30.4969 43.055 29.3866 44.3308C28.7271 45.0934 28.0607 45.4782 27.395 45.4782C27.2019 45.4782 27.0173 45.4481 26.8412 45.388C26.7949 45.586 26.7494 45.784 26.705 45.9821C26.5923 46.5046 26.536 46.8894 26.536 47.1363C26.536 47.9962 26.8237 48.7873 27.3992 49.5095C28.181 50.4729 29.3101 50.9541 30.7922 50.9541C32.0897 50.9541 33.4685 50.648 34.929 50.0381C36.1049 49.5501 37.1615 48.9407 38.0999 48.2059C38.9468 47.5489 39.3724 47.08 39.3724 46.7984C39.3724 46.7516 39.1973 46.3858 38.8471 45.6951C38.4277 44.8814 38.1155 44.0875 37.9119 43.3179C37.8339 43.0587 37.7403 42.8836 37.6338 42.7927C37.5273 42.7024 37.4743 42.6081 37.4743 42.5049C37.4743 42.4269 37.5523 42.0082 37.709 41.2515C37.7335 41.1137 37.7681 41.048 37.8122 41.048C37.8591 41.048 37.9154 41.0791 37.9813 41.1478C38.1963 41.3859 38.6591 41.8548 39.3724 42.5551C39.485 42.6711 39.5413 42.7614 39.5413 42.8273C39.5413 42.9086 39.4754 42.9459 39.3377 42.9459C39.1912 42.9459 38.972 42.9025 38.6782 42.8117C38.6999 42.9025 38.9381 43.3993 39.388 44.3032C39.7509 45.0381 39.9321 45.6727 39.9321 46.2046C39.9321 47.2551 39.6947 48.0525 39.219 48.5967C38.887 48.983 38.486 49.3642 38.016 49.74C37.9814 49.9714 37.7985 50.5339 37.4621 51.4336C37.0902 52.4372 36.9059 53.231 36.9059 53.8126C36.9059 54.2596 37.0089 54.616 37.2186 54.882C37.4379 55.1697 37.7473 55.3169 38.1409 55.3169C38.8384 55.3169 39.5422 54.96 40.2547 54.2537C40.4933 53.9685 40.7328 53.6842 40.9723 53.4L40.974 53.398C41.1859 53.1466 41.3978 52.8951 41.6089 52.6431C42.1968 51.9802 42.9689 51.3894 43.9258 50.8699C44.4857 50.5635 45.458 50.1194 46.8405 49.5378V49.5428L46.8464 49.5378L48.2256 48.9529C48.0288 48.4121 47.9316 47.8593 47.9316 47.2993C47.9316 46.4517 48.0567 45.7696 48.3069 45.2539C48.56 44.741 48.8918 44.485 49.3046 44.485C49.6702 44.485 50.0142 44.7886 50.3365 45.4015C50.6238 45.9422 50.771 46.4363 50.771 46.8774C50.771 47.996 50.4424 48.9158 49.7862 49.6316C50.2519 50.1136 50.8085 50.3546 51.4589 50.3546L51.4618 50.3567V50.3546C52.003 50.3546 52.5283 50.1449 53.0382 49.7259C53.1846 49.6004 53.26 49.1505 53.26 48.3688C53.26 47.893 53.0069 44.1661 52.5033 37.1896C52.0001 30.2102 51.7495 26.4261 51.7495 25.8386C51.7495 25.2946 51.6532 24.8472 51.4618 24.497C51.4618 24.2943 51.6211 23.8245 51.9434 23.0902C51.978 22.9994 52.0121 22.9552 52.0468 22.9552C52.0814 22.9552 52.1218 22.9994 52.1689 23.0902C52.259 23.2933 52.472 23.8245 52.8068 24.685C53.1537 25.5881 53.3597 26.148 53.4289 26.364C53.4635 26.5232 53.4818 26.6421 53.4818 26.72C53.4818 26.9677 53.2408 26.8172 52.766 26.2606C52.7097 26.1826 52.6817 26.2172 52.6817 26.364C52.6817 26.3986 52.9194 29.704 53.3943 36.2794C53.87 42.8586 54.1076 46.43 54.1076 46.9962C54.1076 48.6339 53.8137 49.9256 53.2254 50.8641C52.7251 51.6554 52.1376 52.0523 51.4618 52.0523V52.0494L51.4589 52.0523C50.8306 52.0523 50.1893 51.7767 49.5327 51.2264C49.1824 50.9325 48.9073 50.6168 48.7101 50.2762L46.8464 51.0667L46.8405 51.0638C45.9712 51.4357 45.3204 51.7271 44.8922 51.9302C44.0446 52.3246 43.4605 52.646 43.144 52.8962C42.5624 53.3498 41.7181 54.2162 40.6083 55.492C39.9487 56.2546 39.2824 56.6394 38.6166 56.6394C38.0566 56.6394 37.5688 56.3863 37.1498 55.8831C36.7091 55.3578 36.4898 54.7165 36.4898 53.9565C36.4898 52.9306 36.9033 51.597 37.7331 49.9593C37.2087 50.3537 36.6075 50.7418 35.9298 51.1232C34.0969 52.1424 32.3895 52.6519 30.8078 52.6519C28.6811 52.6519 27.218 51.611 26.4146 49.5284C26.2577 49.1219 26.1797 48.6028 26.1797 47.9682C26.1797 47.5489 26.211 47.1269 26.2794 46.6952C26.3644 46.1749 26.4752 45.7057 26.6129 45.2909C26.3669 45.1646 26.1387 44.9747 25.9278 44.7215C25.4874 44.1961 25.2682 43.5549 25.2682 42.7948C25.2682 41.9527 25.5466 40.9035 26.1055 39.6485L25.8843 39.8307C25.2396 40.3187 24.6519 40.5622 24.1205 40.5622C23.5608 40.5622 23.0728 40.3091 22.6541 39.8057C22.213 39.2803 21.9938 38.6391 21.9938 37.8791C21.9938 36.8347 22.4227 35.4713 23.2825 33.7925C23.3728 33.6174 23.4419 33.53 23.4914 33.53C23.5166 33.5326 23.526 33.5578 23.526 33.5957C23.526 33.7675 23.3415 34.3524 22.9663 35.356C22.5943 36.3597 22.4099 37.1536 22.4099 37.736C22.4099 38.1763 22.5129 38.5332 22.7226 38.8047C22.9479 39.0924 23.2574 39.2397 23.6448 39.2397C24.286 39.2397 24.8866 39.03 25.4526 38.6113C26.1468 38.0108 26.8437 37.4102 27.5379 36.813C28.7233 35.8079 29.9056 35.0265 31.0825 34.4716C30.9307 33.8686 30.8164 33.2613 30.7398 32.6487C30.7181 32.4831 30.7025 32.3825 30.6896 32.3419C30.6557 32.217 30.5838 32.0827 30.4711 31.9354L30.8526 31.0098C30.9121 30.8564 30.9686 30.7819 31.012 30.7819C31.0527 30.7819 31.1185 30.8564 31.2155 31.0098L32.1907 32.5707C32.3224 32.7797 32.3848 32.9329 32.3848 33.03C32.3848 33.0986 32.3535 33.1332 32.2851 33.1332C32.1655 33.1332 31.9532 33.0335 31.6472 32.8359C31.6998 33.1951 31.792 33.6132 31.9245 34.0888L32.075 34.0206C32.7414 33.7892 33.3135 33.6738 33.7891 33.6738C34.2675 33.6738 34.649 33.874 34.9272 34.2805C35.2088 34.6835 35.3493 35.2182 35.3493 35.8778C35.3493 36.4282 35.2305 36.8821 34.993 37.2384C34.7548 37.5947 34.4393 37.7731 34.0518 37.7731C33.5136 37.7731 32.9945 37.5106 32.4911 36.9914C32.1158 36.6005 31.8375 36.1812 31.6503 35.734C30.7307 36.1004 29.6735 36.7539 28.4887 37.6918C27.8604 38.2052 27.2357 38.7183 26.612 39.2315C26.5213 39.5053 26.3977 39.8519 26.2407 40.272C25.8687 41.2755 25.6842 42.0694 25.6842 42.651C25.6842 43.0984 25.7874 43.4552 25.9971 43.7204C26.2157 44.0081 26.5257 44.1557 26.9192 44.1557C27.6169 44.1557 28.3206 43.7992 29.0331 43.0921C29.2365 42.8495 29.4404 42.6074 29.6444 42.3653L29.6453 42.3643C29.8928 42.0704 30.1403 41.7766 30.3869 41.4819C30.9751 40.819 31.7477 40.2278 32.7041 39.7087C33.2611 39.4044 34.2255 38.9632 35.5955 38.3862V38.3837C37.0714 37.7591 38.0412 37.2738 38.504 36.9332C38.6383 36.8336 38.685 36.6989 38.6383 36.5267C38.391 35.6228 37.372 34.4187 35.5797 32.9152C33.9284 31.5826 32.2767 30.2536 30.6252 28.9246L30.6134 28.915L30.6126 28.9144L30.4395 28.7751C30.3797 28.7247 30.3485 28.5375 30.3485 28.2152C30.3485 27.7966 30.3926 27.3651 30.4831 26.9177C30.5798 26.4203 30.6987 26.1047 30.8396 25.9767C31.806 25.1036 33.8694 23.9466 37.0277 22.5053C40.2268 21.0415 42.3406 20.3102 43.3633 20.3102C43.6665 20.3102 43.8757 20.3698 43.9883 20.4911C44.1042 20.6133 44.1605 20.8197 44.1605 21.1136C44.1605 21.7861 43.7569 22.6241 42.9568 23.6252C42.8089 23.7928 42.6603 23.9605 42.5114 24.1285L42.5065 24.1341L42.5058 24.1348C42.354 24.3061 42.2019 24.4779 42.0496 24.6504C41.5685 25.2104 41.2428 25.6669 41.0744 26.0171C40.9618 26.2548 40.8897 26.3736 40.8613 26.3736C40.8334 26.3736 40.8492 26.2139 40.9118 25.8983C40.946 25.7232 41.0802 25.4201 41.312 24.9911C41.5218 24.5941 41.6777 24.3377 41.784 24.2189C42.6908 23.1899 43.2316 22.5116 43.413 22.1893C43.4321 22.158 43.438 22.1242 43.438 22.0896C43.438 21.8953 43.1849 21.8015 42.6754 21.8015C41.8686 21.8015 39.9545 22.5053 36.9343 23.9129C33.9165 25.3196 31.8494 26.4766 30.7366 27.383C30.6645 27.4464 30.6736 27.4993 30.7708 27.5427C31.7585 28.1493 32.7316 28.7751 33.6885 29.4189C35.9899 30.9798 38.0254 32.5183 39.8015 34.0347C40.3393 34.5037 40.8743 34.9761 41.4117 35.451C41.4524 35.4813 41.493 35.5106 41.5336 35.539C41.4583 34.3533 41.4209 33.6478 41.4209 33.4232C41.4209 32.8761 41.3368 32.4257 41.1678 32.0754C41.1678 31.8536 41.3239 31.3846 41.6401 30.668C41.7087 30.5085 41.784 30.512 41.8621 30.6747C41.953 30.8683 42.162 31.4002 42.487 32.2695C42.8344 33.1761 43.0347 33.7326 43.091 33.9423C43.1345 34.1017 43.1595 34.2206 43.1595 34.2986C43.1595 34.5489 42.9187 34.399 42.4375 33.8486C42.3812 33.7699 42.3527 33.8045 42.3527 33.9518C42.3527 33.98 42.4015 34.6743 42.5 36.0338C42.7633 36.1187 43.0245 36.1612 43.2833 36.1611V36.1577C43.5239 36.2007 43.7573 36.2015 43.9842 36.1611ZM34.1265 36.0754C34.3457 36.0754 34.4583 36.0156 34.4583 35.8969C34.4583 35.7218 34.3016 35.5684 33.9894 35.4375C33.758 35.3431 33.3828 35.3403 32.8635 35.4307C33.1383 35.8596 33.5605 36.0754 34.1265 36.0754ZM50.3394 47.6054C50.3394 47.4182 50.1927 47.1305 49.905 46.7394C49.5889 46.32 49.3138 46.1136 49.0824 46.1136C48.9073 46.1136 48.7351 46.2203 48.5662 46.4363C48.3978 46.6485 48.3131 46.852 48.3131 47.0454C48.3131 47.2084 48.404 47.4961 48.5912 47.9026C48.7509 48.2587 48.8731 48.4997 48.9636 48.6218C49.2012 48.5093 49.4735 48.35 49.7795 48.1403C50.1518 47.8905 50.3394 47.7121 50.3394 47.6054Z" fill="white"/>
<path d="M47.9785 22.2468C48.1474 22.5971 48.2317 23.0468 48.2317 23.5946C48.2317 24.0634 48.3944 26.6272 48.7256 31.2803C49.0574 35.9362 49.2231 38.5318 49.2231 39.0665C49.2231 39.6671 49.1979 40.1924 49.1484 40.6457C49.1077 40.9742 49.0982 41.1864 49.1232 41.2836C49.1388 41.3772 49.1857 41.3616 49.267 41.2333C49.3167 41.143 49.3859 40.9959 49.47 40.793C49.8765 39.7859 50.0801 38.6254 50.0801 37.3125C50.0801 36.8842 49.9267 34.5918 49.62 30.4328C49.3139 26.277 49.164 24.1727 49.164 24.1225C49.164 23.9759 49.1918 23.9413 49.2481 24.0193C49.73 24.5697 49.9701 24.7203 49.9701 24.47C49.9701 24.392 49.9458 24.2731 49.9016 24.1137C49.8454 23.904 49.6451 23.3475 49.2983 22.4402C48.9726 21.5709 48.7636 21.0397 48.6727 20.8458C48.5946 20.6834 48.5193 20.6799 48.4507 20.8394C48.1353 21.5554 47.9785 22.0243 47.9785 22.2468Z" fill="white"/>
<path d="M30.4958 40.0757V39.0876C30.6457 39.1406 30.9395 39.1968 31.3712 39.2566C31.8027 39.3164 32.0402 39.3346 32.0871 39.3129C32.1216 39.2973 32.1408 39.2505 32.1408 39.1724V37.9367C32.1408 37.8804 32.1251 37.8491 32.0966 37.8465C31.5652 37.79 31.0401 37.7088 30.5175 37.6056C30.455 37.5934 30.4204 37.6306 30.4143 37.7209C30.3865 38.0121 30.3797 38.3527 30.3926 38.7436C29.8389 38.675 29.3326 38.597 28.876 38.5122C28.8135 38.5027 28.7789 38.5407 28.7728 38.6283C28.6974 39.3407 28.7035 39.7852 28.7885 39.9569C28.8102 40.0038 29.0789 40.0634 29.5952 40.1415C30.1075 40.2168 30.3926 40.2413 30.4421 40.2168C30.4767 40.1978 30.4958 40.1537 30.4958 40.0757Z" fill="white"/>
<path d="M34.457 48.1967C34.6945 47.8275 34.8132 47.499 34.8132 47.2114C34.8132 46.8205 34.6572 46.6271 34.3478 46.6271C33.9724 46.6271 33.7377 46.8646 33.6345 47.3396C33.6188 47.4367 33.6067 47.4963 33.6006 47.518C33.6188 47.5242 33.6317 47.5303 33.644 47.5432C33.6597 47.5364 33.7036 47.5119 33.7688 47.4678C33.8598 47.4054 33.963 47.3741 34.0755 47.3741C34.2785 47.3741 34.3823 47.4834 34.3823 47.7026C34.3823 47.9368 34.0634 48.3968 33.4316 49.0877C33.2999 49.2281 33.2375 49.313 33.2375 49.3347C33.2375 49.3408 33.2375 49.3441 33.2436 49.3441C33.2721 49.3441 33.3624 49.2878 33.5156 49.1814C33.9004 48.9091 34.2133 48.5815 34.457 48.1967Z" fill="white"/>
<path d="M39.6108 25.3813C39.8482 25.0122 39.9669 24.6837 39.9669 24.396C39.9669 24.0051 39.8109 23.8118 39.5015 23.8118C39.1261 23.8118 38.8914 24.0492 38.7882 24.5242C38.7726 24.6213 38.7604 24.6809 38.7543 24.7026C38.7726 24.7089 38.7854 24.7149 38.7977 24.7278C38.8134 24.721 38.8573 24.6965 38.9225 24.6524C39.0135 24.59 39.1167 24.5588 39.2293 24.5588C39.4322 24.5588 39.5361 24.668 39.5361 24.8873C39.5361 25.1215 39.2171 25.5815 38.5853 26.2724C38.4536 26.4127 38.3912 26.4977 38.3912 26.5194C38.3912 26.5255 38.3912 26.5288 38.3973 26.5288C38.4258 26.5288 38.5161 26.4725 38.6694 26.366C39.0542 26.0938 39.367 25.7661 39.6108 25.3813Z" fill="white"/>
<path d="M39.1621 51.7904C39.0954 52.2242 39.1208 52.5726 39.2379 52.8354C39.397 53.1924 39.6182 53.3055 39.9008 53.1795C40.2437 53.0267 40.3614 52.7143 40.2623 52.2384C40.2371 52.1434 40.2239 52.084 40.2206 52.0617C40.2014 52.0634 40.1872 52.0631 40.1707 52.0563C40.1592 52.0689 40.129 52.1092 40.0875 52.176C40.0297 52.27 39.9482 52.3406 39.8454 52.3864C39.66 52.469 39.5207 52.4115 39.4314 52.2112C39.3361 51.9973 39.4402 51.4473 39.736 50.5591C39.7991 50.3773 39.8215 50.2743 39.8127 50.2544C39.8102 50.2489 39.8089 50.2459 39.8033 50.2484C39.7773 50.2599 39.7177 50.3481 39.6211 50.5078C39.3804 50.9131 39.228 51.3397 39.1621 51.7904Z" fill="white"/>
<path d="M43.4905 26.8289C43.728 26.4598 43.8467 26.1313 43.8467 25.8436C43.8467 25.4527 43.6907 25.2594 43.3813 25.2594C43.0058 25.2594 42.7711 25.4969 42.668 25.9718C42.6523 26.0689 42.6402 26.1285 42.6341 26.1502C42.6523 26.1565 42.6652 26.1626 42.6775 26.1754C42.6931 26.1686 42.7371 26.1441 42.8022 26.1C42.8933 26.0376 42.9965 26.0064 43.109 26.0064C43.3119 26.0064 43.4158 26.1156 43.4158 26.3349C43.4158 26.5691 43.0969 27.0291 42.465 27.72C42.3334 27.8603 42.271 27.9453 42.271 27.967C42.271 27.9731 42.271 27.9764 42.2771 27.9764C42.3056 27.9764 42.3959 27.9201 42.5491 27.8136C42.9339 27.5414 43.2468 27.2137 43.4905 26.8289Z" fill="white"/>
<path d="M23.3267 31.1085C23.2735 31.3446 23.2742 31.5371 23.3286 31.6861C23.4025 31.8885 23.5199 31.9591 23.6801 31.9006C23.8745 31.8296 23.9511 31.6622 23.9147 31.3968C23.9044 31.3435 23.8995 31.3104 23.8985 31.298C23.8879 31.2982 23.8801 31.2975 23.8713 31.2932C23.8644 31.2996 23.8463 31.3206 23.8209 31.3558C23.7856 31.4053 23.7381 31.441 23.6798 31.4623C23.5747 31.5007 23.5003 31.4637 23.4588 31.3502C23.4145 31.2289 23.4927 30.9304 23.6892 30.4532C23.7308 30.3556 23.7471 30.2998 23.743 30.2886C23.7418 30.2854 23.7412 30.2837 23.7381 30.2849C23.7233 30.2903 23.6872 30.3365 23.628 30.4206C23.4802 30.6343 23.3801 30.8632 23.3267 31.1085Z" fill="white"/>
<path d="M25.6554 33.26C25.8391 32.9752 25.9306 32.7218 25.9306 32.4998C25.9306 32.1983 25.8097 32.0491 25.5711 32.0491C25.2816 32.0491 25.1009 32.2323 25.0208 32.5987C25.0087 32.6736 24.9994 32.7197 24.9947 32.7365C25.0087 32.7412 25.0188 32.7459 25.0282 32.7558C25.0402 32.7506 25.0743 32.7317 25.1251 32.6976C25.1946 32.6495 25.2742 32.6254 25.3611 32.6254C25.5181 32.6254 25.5977 32.7097 25.5977 32.8788C25.5977 33.0595 25.3517 33.4143 24.8643 33.9473C24.7627 34.0556 24.7146 34.1211 24.7146 34.1379C24.7146 34.1426 24.7146 34.1451 24.7193 34.1451C24.7412 34.1451 24.8115 34.1017 24.9293 34.0196C25.226 33.8095 25.4673 33.5568 25.6554 33.26Z" fill="white"/>
<path d="M30.9593 50.1305C30.8687 50.2172 30.7764 50.2603 30.676 50.2603C30.4594 50.2603 30.3507 50.1403 30.3507 49.9023C30.3507 49.6873 30.4512 49.4335 30.6542 49.1382C30.8315 48.8741 30.9986 48.6929 31.1563 48.5985C31.1879 48.581 31.2075 48.581 31.2153 48.6023C31.2251 48.628 31.2174 48.6557 31.1879 48.689C31.0678 48.7993 30.9456 48.9489 30.8255 49.1382C30.6896 49.3407 30.6226 49.4907 30.6226 49.5869C30.6836 49.536 30.7546 49.5121 30.8354 49.5121C31.0204 49.5121 31.1131 49.5929 31.1131 49.7583C31.1131 49.9078 31.0618 50.0321 30.9593 50.1305Z" fill="white"/>
<path d="M28.7383 25.4764C28.9759 25.1072 29.0953 24.7794 29.0953 24.4917C29.0953 24.1008 28.9386 23.9068 28.6292 23.9068C28.2537 23.9068 28.019 24.1443 27.9159 24.6199C27.9002 24.7163 27.8881 24.7761 27.882 24.7978C27.9002 24.8039 27.9131 24.8107 27.9254 24.8228C27.941 24.8167 27.985 24.7917 28.0508 24.7483C28.1412 24.6851 28.2444 24.654 28.3569 24.654C28.5605 24.654 28.6637 24.7638 28.6637 24.9823C28.6637 25.2172 28.3448 25.6765 27.713 26.3674C27.5813 26.5084 27.5189 26.5927 27.5189 26.6144C27.5189 26.6212 27.5189 26.6238 27.525 26.6238C27.5535 26.6238 27.6438 26.5675 27.797 26.4617C28.1818 26.1895 28.4947 25.8611 28.7383 25.4764Z" fill="white"/>
<path d="M33.4105 21.5398C33.5919 21.4291 33.7131 21.3115 33.7738 21.1862C33.8562 21.0159 33.8289 20.8984 33.6941 20.8331C33.5306 20.7539 33.3783 20.8078 33.233 20.9932C33.2058 21.0319 33.1879 21.0554 33.1807 21.0636C33.1874 21.0701 33.1915 21.0758 33.1943 21.0837C33.2024 21.0843 33.2269 21.0827 33.2647 21.0776C33.3174 21.0692 33.3689 21.0774 33.4179 21.1011C33.5066 21.1441 33.5284 21.2137 33.4823 21.3089C33.4328 21.4112 33.1969 21.544 32.7759 21.7116C32.6888 21.7453 32.6439 21.7689 32.6393 21.7783C32.6379 21.7813 32.6373 21.7824 32.64 21.7837C32.6524 21.7897 32.7036 21.7842 32.7927 21.7705C33.0177 21.7331 33.2233 21.6561 33.4105 21.5398Z" fill="white"/>
<path d="M40.0275 40.4656C40.1377 40.4656 40.239 40.4183 40.3383 40.3231C40.4508 40.2153 40.5071 40.0789 40.5071 39.9149C40.5071 39.7334 40.4053 39.6449 40.2024 39.6449C40.1138 39.6449 40.0359 39.671 39.969 39.7268C39.969 39.6214 40.0425 39.4568 40.1916 39.2347C40.3233 39.027 40.4574 38.8629 40.5892 38.742C40.6214 38.7054 40.63 38.675 40.6192 38.6468C40.6106 38.6234 40.5892 38.6234 40.5545 38.6426C40.3814 38.7462 40.1982 38.945 40.0037 39.2347C39.7809 39.5586 39.6708 39.837 39.6708 40.0728C39.6708 40.3339 39.7899 40.4656 40.0275 40.4656Z" fill="white"/>
<path d="M27.468 42.8897C27.5685 42.8897 27.6608 42.8462 27.7514 42.7599C27.854 42.6611 27.9053 42.5372 27.9053 42.3875C27.9053 42.2222 27.8125 42.1414 27.6274 42.1414C27.5467 42.1414 27.4758 42.1649 27.4146 42.2162C27.4146 42.1196 27.4817 41.97 27.6177 41.7671C27.7377 41.5781 27.8599 41.4286 27.9801 41.3183C28.0096 41.2845 28.0173 41.2571 28.0074 41.2315C27.9997 41.2098 27.9801 41.2098 27.9484 41.2277C27.7908 41.3221 27.6236 41.5033 27.4462 41.7671C27.2433 42.0624 27.1429 42.3166 27.1429 42.5312C27.1429 42.7697 27.2514 42.8897 27.468 42.8897Z" fill="white"/>
<path d="M45.5785 43.7181C45.5892 43.6942 45.6024 43.6768 45.6132 43.6637C45.6258 43.6576 45.6305 43.6595 45.6305 43.6703C45.6347 43.681 45.6347 43.7008 45.6305 43.7289C45.5264 44.3031 45.354 44.5905 45.1163 44.5905C44.8612 44.5905 44.7361 44.3791 44.7361 43.9576C44.7361 43.4373 44.8851 42.8926 45.1851 42.3225C45.2611 42.1819 45.3042 42.1088 45.3216 42.1064C45.3225 42.1064 45.3236 42.107 45.3244 42.1078C45.3247 42.1082 45.3253 42.109 45.3255 42.1094L45.3258 42.1107C45.3258 42.1388 45.3042 42.219 45.2611 42.3525C45.0666 42.9469 44.9695 43.3613 44.9695 43.599C44.9695 43.9229 45.0558 44.0874 45.233 44.0874C45.3342 44.0874 45.4487 43.9642 45.5785 43.7181Z" fill="white"/>
<path d="M24.3523 43.8872C24.368 43.8466 24.3871 43.8214 24.4025 43.8092C24.4149 43.7997 24.4242 43.8031 24.4277 43.8188C24.4338 43.8344 24.4338 43.8622 24.4277 43.9029C24.3897 44.2253 24.296 44.513 24.1522 44.7694C24.0084 45.0225 23.8522 45.1509 23.6833 45.1509C23.4954 45.1535 23.3548 45.0598 23.2579 44.8597C23.1642 44.6629 23.1201 44.3969 23.133 44.0623C23.1486 43.6558 23.2733 43.134 23.5047 42.4961C23.7023 41.952 23.8774 41.5705 24.0301 41.3514C24.127 41.2197 24.1835 41.1511 24.1991 41.1485C24.2052 41.1702 24.1807 41.2448 24.1244 41.3764C23.783 42.1332 23.5706 42.8334 23.4865 43.4713C23.4736 43.5433 23.4709 43.6185 23.4709 43.6904C23.4709 44.2001 23.5958 44.4437 23.8522 44.4219C24.0056 44.403 24.1711 44.2253 24.3523 43.8872Z" fill="white"/>
<path d="M24.9832 27.9227C25.2057 27.9227 25.4304 28.1382 25.6554 28.5691C25.8593 28.9644 25.9995 29.405 26.0813 29.8918L26.0827 29.9008L26.0848 29.9143L26.0871 29.9295C26.0908 29.9531 26.093 29.9673 26.093 29.9736C26.1027 29.9853 26.1072 29.9853 26.1118 29.9736C26.1163 29.9645 26.128 29.9386 26.1448 29.8918C26.2032 29.4725 26.3181 28.9202 26.4868 28.2316C26.6479 27.8475 26.8237 27.6555 27.0133 27.6555C27.1119 27.6555 27.2079 27.7216 27.306 27.8526C27.3903 27.9669 27.4324 28.0584 27.4324 28.1311C27.4324 28.1875 27.4182 28.2577 27.3883 28.3465C27.3507 28.4659 27.306 28.5243 27.2546 28.5243C27.2332 28.5243 27.1865 28.4802 27.1164 28.3887C27.0437 28.2972 26.969 28.253 26.8939 28.253C26.7374 28.253 26.559 28.8008 26.3602 29.8963C26.2968 30.2455 26.2266 30.4915 26.1494 30.6342C26.0955 30.7323 26.0488 30.7816 26.0112 30.7816C25.9761 30.7816 25.9598 30.7373 25.9598 30.6485C25.9598 30.5031 25.8684 30.1586 25.688 29.618C25.501 29.0585 25.3765 28.7794 25.3134 28.7794C25.2667 28.7794 25.2363 28.7937 25.2246 28.8242C25.2103 28.8521 25.1727 28.8684 25.1097 28.8684C25.037 28.8684 24.9436 28.8146 24.8261 28.7093C24.7093 28.6042 24.6529 28.5173 24.6529 28.4542C24.6529 28.4264 24.7002 28.3302 24.7982 28.1662C24.8968 28.002 24.9573 27.9227 24.9832 27.9227Z" fill="white"/>
<path d="M54.7299 29.1848C54.7299 28.6311 54.6423 28.184 54.4733 27.8459C54.4733 27.618 54.6295 27.1456 54.9484 26.4297C55.0143 26.2702 55.0895 26.2735 55.1675 26.4358C55.2585 26.6298 55.4675 27.1613 55.796 28.0306C56.14 28.9377 56.3436 29.4969 56.3992 29.7127C56.4433 29.8635 56.4685 29.9821 56.4685 30.0601C56.4685 30.3195 56.2241 30.1694 55.743 29.6097C55.6867 29.5411 55.6582 29.5784 55.6582 29.7195C55.6582 29.7725 55.8367 32.2398 56.1902 37.121C56.543 42.0049 56.7216 44.663 56.7216 45.0912C56.7216 46.4205 56.5187 47.5803 56.1183 48.5689C56.0335 48.7753 55.9649 48.9219 55.9119 49.0128C55.8332 49.141 55.7864 49.1566 55.768 49.063C55.7456 48.9659 55.7552 48.7529 55.796 48.4251C55.8462 47.9711 55.874 47.4432 55.874 46.8392C55.874 46.3079 55.6833 43.3498 55.3019 37.9712C54.9204 32.59 54.7299 29.6599 54.7299 29.1848Z" fill="white"/>
<path d="M33.8976 44.1411C33.8724 44.1255 33.8724 44.0909 33.8976 44.0407L34.4384 42.9279C34.473 42.8586 34.5103 42.8275 34.5483 42.8275C34.6046 42.8275 34.8482 42.9746 35.2799 43.2685C35.7081 43.5623 35.9239 43.7346 35.9239 43.7841C35.9239 43.9784 35.7331 44.3786 35.3551 44.9915C35.3084 45.0695 35.2608 45.0884 35.2113 45.0511C34.7858 44.7254 34.3482 44.4255 33.8976 44.1411Z" fill="white"/>
<path d="M48.9292 42.9216L49.3609 42.0301C49.3954 41.9615 49.4328 41.9302 49.4734 41.9302C49.5297 41.9302 49.7707 42.0768 50.2015 42.3714C50.6304 42.6652 50.8462 42.8368 50.8462 42.887C50.8462 43.0811 50.6556 43.4808 50.2769 44.0909C50.2328 44.1663 50.1832 44.1846 50.133 44.15C49.7611 43.8752 49.3391 43.584 48.8694 43.2779C48.7099 43.6342 48.5574 43.9375 48.404 44.188C48.3599 44.266 48.3104 44.285 48.2602 44.2469C47.8345 43.9219 47.3969 43.622 46.9463 43.337C46.9218 43.3213 46.9218 43.2875 46.9463 43.2373L47.4878 42.1237C47.5218 42.0551 47.5597 42.024 47.5971 42.0205C47.65 42.024 47.8563 42.1426 48.216 42.3869C48.5791 42.6306 48.8166 42.809 48.9292 42.9216Z" fill="white"/>
<path fill-rule="evenodd" clip-rule="evenodd" d="M47.3298 38.9498C46.8396 38.695 46.5929 38.4281 46.5929 38.1486C46.5929 37.813 46.751 37.5047 47.0584 37.2254C47.3703 36.9461 47.6294 36.8416 47.8358 36.918C48.0096 36.9785 48.0949 37.1649 48.0949 37.4766C48.0949 37.7559 48.0378 38.0714 47.921 38.4202C48.1677 38.5614 48.326 38.6829 48.3865 38.7802C48.3865 38.9138 48.2768 39.136 48.0546 39.4522C47.9939 39.3548 47.8437 39.2336 47.6049 39.0877C47.3298 39.4681 46.982 39.8167 46.5612 40.1277C46.0833 40.4801 45.6415 40.747 45.2409 40.9254C45.16 40.9658 44.6945 41.1442 43.853 41.4561C43.7194 41.5042 43.6342 41.5289 43.5894 41.5289C43.5692 41.5289 43.5613 41.5211 43.5613 41.5123C43.5613 41.4797 43.6342 41.4156 43.7801 41.3225C44.4028 40.9535 45.0266 40.5811 45.6538 40.2051C46.4031 39.7517 46.9617 39.3346 47.3298 38.9498ZM47.6294 38.2664C47.6777 38.1162 47.6865 37.9624 47.6618 37.8088C47.6294 37.6383 47.552 37.5576 47.4308 37.5576C47.3746 37.5576 47.2939 37.5864 47.1963 37.6383C47.0953 37.6954 47.0427 37.748 47.0427 37.8009C47.0427 37.9221 47.241 38.0802 47.6294 38.2664Z" fill="white"/>
<path fill-rule="evenodd" clip-rule="evenodd" d="M46.6559 46.3627C46.6559 46.74 46.5272 47.1007 46.2694 47.4414C45.995 47.8133 45.6704 47.9991 45.3039 47.9991C44.922 47.9991 44.7305 47.8133 44.7305 47.4414C44.7305 47.1736 44.8807 46.7805 45.1798 46.2698C45.4843 45.7534 45.7429 45.5013 45.9591 45.5013C46.1452 45.5013 46.311 45.583 46.4498 45.7433C46.5842 45.9091 46.6559 46.1152 46.6559 46.3627ZM46.3256 46.7862C46.3256 46.4398 46.0836 46.2652 45.6087 46.2652C45.5414 46.2652 45.4284 46.3727 45.2681 46.5901C45.1081 46.8117 45.0307 46.962 45.0307 47.0491C45.0866 47.1736 45.2626 47.2352 45.5672 47.2352C46.0736 47.2352 46.3256 47.085 46.3256 46.7862Z" fill="white"/>
<path d="M44.1446 28.5135C44.3727 28.5135 44.4887 28.6234 44.4887 28.848C44.4887 28.9674 44.4575 29.0923 44.3944 29.2205C44.3536 29.3081 44.2506 29.4486 44.0848 29.6487C43.8474 29.9209 43.6914 30.1115 43.6099 30.2243C43.4756 30.4027 43.3967 30.493 43.375 30.493C43.3724 30.493 43.3689 30.4868 43.3689 30.4807C43.3689 30.459 43.3906 30.3992 43.4315 30.2962C43.5223 30.0709 43.6662 29.8455 43.8725 29.6114C43.9879 29.4832 44.11 29.3515 44.2321 29.2205C44.1854 29.1079 44.1133 29.0516 44.0103 29.0516C43.9384 29.0516 43.8474 29.0767 43.7442 29.1296C42.7093 29.6548 41.7118 29.9209 40.7516 29.9209C40.223 29.9209 39.7446 29.8056 39.3164 29.5768C39.3789 29.7769 39.3572 30.0146 39.2505 30.2962C39.2099 30.4054 39.1821 30.465 39.163 30.4678C39.1536 30.4678 39.1475 30.3992 39.1475 30.2649C39.1475 30.0146 39.1067 29.7986 39.0287 29.6175C39.0191 29.5957 38.8881 29.3984 38.6411 29.0325C38.6819 28.7794 38.7443 28.6547 38.8285 28.6547C38.8379 28.6547 38.9005 28.6981 39.0191 28.789C39.1604 28.9043 39.3042 28.9987 39.4508 29.0767C39.8858 29.3048 40.3641 29.4208 40.8798 29.4208C41.4241 29.4208 41.9493 29.3426 42.4557 29.1859C42.7527 29.0923 43.1064 28.945 43.5155 28.7448C43.838 28.5888 44.0477 28.5135 44.1446 28.5135Z" fill="white"/>
<path d="M32.3904 45.6978C32.3904 45.8043 32.2561 46.0418 31.99 46.4172C31.6866 46.8366 31.3997 47.146 31.1276 47.34C30.9525 47.4615 30.3737 47.6555 29.389 47.9156C29.2139 47.959 29.1257 47.9745 29.1257 47.9651C29.1385 47.9467 29.1976 47.8965 29.3075 47.8117C29.4357 47.712 29.786 47.5152 30.358 47.2118C30.9084 46.9207 31.2306 46.7334 31.3243 46.6519C31.3399 46.633 31.3495 46.6174 31.3495 46.6017C31.3495 46.4707 30.8582 46.4077 29.8829 46.4077C29.8796 46.4077 29.6923 46.4145 29.3197 46.4301C29.142 46.4395 29.0544 46.4266 29.0544 46.3955C29.0544 46.3703 29.0761 46.3201 29.1196 46.2421L29.467 45.6544C29.5702 45.4821 29.7547 45.3761 30.0234 45.3294C30.1206 45.3138 30.3459 45.307 30.702 45.307C31.8279 45.307 32.3904 45.4352 32.3904 45.6978Z" fill="white"/>
<path d="M37.688 26.4223C37.688 26.3347 37.6317 26.256 37.5156 26.1909C37.4003 26.125 37.2219 26.0937 36.9809 26.0937C36.4245 26.0937 35.8898 26.256 35.3766 26.5878C35.1608 26.7256 35.0516 26.8538 35.0516 26.9726C35.0516 27.1192 35.2145 27.2848 35.5335 27.4727C36.0301 27.7007 36.421 27.8669 36.7061 27.9668C37.1187 28.2076 37.2999 28.4233 37.2504 28.6169C37.1126 28.5828 36.7563 28.4668 36.1808 28.2666C35.5335 28.0448 35.133 27.8853 34.9736 27.7917C34.5983 27.5759 34.3609 27.373 34.2577 27.1884C34.242 27.2474 34.2353 27.3133 34.2353 27.3817C34.2353 27.7571 34.4111 28.0448 34.7578 28.2484C35.1799 28.492 35.9052 28.739 36.9436 28.9893C37.0094 29.005 37.1282 28.9391 37.2999 28.7925C37.4904 28.6297 37.5936 28.4668 37.61 28.3047C37.6378 28.0353 37.4722 27.7978 37.1152 27.5881C37.0501 27.5542 36.8749 27.4821 36.584 27.3791C36.2961 27.2759 36.0586 27.1694 35.8774 27.0628C35.6367 26.9257 35.5178 26.8253 35.5144 26.7594C35.5178 26.7221 35.5517 26.691 35.6271 26.6625C35.8489 26.575 36.1429 26.522 36.5058 26.503C36.8465 26.4813 37.0561 26.4942 37.1343 26.5376C37.2469 26.6658 37.3032 26.7568 37.2999 26.8131C37.3405 26.8348 37.4409 26.7629 37.6032 26.6C37.6595 26.5437 37.688 26.4846 37.688 26.4223Z" fill="white"/>
<path d="M38.3443 39.9447C37.6411 40.2065 36.9453 40.4654 36.2569 40.7215L36.2463 40.7255C34.8259 41.2539 33.4371 41.7706 32.081 42.2771C31.9839 42.4805 31.9154 42.6652 31.8746 42.8342C32.1095 42.693 33.238 42.2491 35.2608 41.4953C37.2438 40.7542 38.2474 40.3729 38.2691 40.3477C38.3158 40.3132 38.3756 40.2039 38.4475 40.0262C38.4727 39.9697 38.4753 39.9352 38.4599 39.9223C38.4475 39.9134 38.4102 39.9223 38.3443 39.9447Z" fill="white"/>
<path d="M29.6939 30.6168C29.9913 30.4154 30.1548 30.2786 30.184 30.2008C30.2561 30.0087 29.8799 29.7607 29.0567 29.4518C28.7956 29.3539 28.6296 29.2973 28.5543 29.2821C28.3445 29.2424 28.1809 29.2699 28.0583 29.3671L27.6431 29.7016C27.5899 29.7467 27.5598 29.7772 27.5529 29.7955C27.5443 29.8184 27.6048 29.8518 27.7378 29.8939C28.0141 29.9845 28.1534 30.0311 28.1553 30.0318C28.8689 30.2995 29.2109 30.4804 29.1749 30.5762C29.1706 30.5876 29.1594 30.5964 29.1427 30.606C29.0514 30.6397 28.7649 30.6884 28.2826 30.7503C27.7811 30.8152 27.4706 30.8629 27.35 30.9008C27.2463 30.9326 27.1893 30.9531 27.1749 30.9631C27.1723 30.9699 27.2406 30.9825 27.3806 30.9988C28.1724 31.079 28.6483 31.0957 28.8096 31.0549C29.0618 30.9877 29.3571 30.8404 29.6939 30.6168Z" fill="white"/>
<path d="M29.4279 34.0608C29.4215 33.6995 29.3668 33.4609 29.2681 33.3401C29.0606 33.0861 28.6744 33.144 28.1056 33.5101C28.0112 33.5771 27.9725 33.6188 27.9879 33.6378C27.9978 33.6498 28.0887 33.6526 28.2593 33.6477C28.4306 33.6423 28.5335 33.6612 28.5714 33.7076C28.6477 33.801 28.6765 33.9363 28.6584 34.117C28.3847 33.9329 28.1769 33.8237 28.0288 33.7948C27.7278 33.7359 27.4108 33.8403 27.0858 34.1058C26.9864 34.187 26.6647 34.5639 26.1167 35.238C25.5683 35.9131 25.0638 36.4442 24.5962 36.8262C24.314 37.0567 24.1827 37.1852 24.2003 37.2067C24.2161 37.2138 24.2718 37.1941 24.374 37.1476C24.6639 36.9982 24.9282 36.8282 25.1667 36.6334C25.9775 35.9711 26.6841 35.1619 27.2887 34.2089C27.4775 34.2193 27.7128 34.3115 27.9932 34.4901L28.0174 34.5076L28.0183 34.5082C28.224 34.6573 28.4302 34.8067 28.6367 34.9499C28.6663 34.9673 28.7726 34.9521 28.9573 34.8999C29.1408 34.8529 29.2472 34.8118 29.2785 34.7817C29.3853 34.6586 29.4377 34.42 29.4279 34.0608Z" fill="white"/>
<path d="M58.1053 33.1621C58.3897 32.721 58.5336 32.3274 58.5336 31.98C58.5336 31.5111 58.3463 31.2797 57.9738 31.2797C57.5265 31.2797 57.2423 31.5641 57.1174 32.1333C57.0984 32.2487 57.0861 32.3206 57.0767 32.3491C57.0984 32.3552 57.1139 32.3647 57.1295 32.3769C57.1487 32.3708 57.1989 32.3396 57.2796 32.2867C57.3894 32.2113 57.511 32.174 57.646 32.174C57.8931 32.174 58.0145 32.305 58.0145 32.571C58.0145 32.8493 57.6332 33.4031 56.8731 34.2316C56.7204 34.4006 56.6417 34.5003 56.6417 34.5253C56.6417 34.5316 56.645 34.5376 56.6511 34.5376C56.6859 34.5376 56.7924 34.4725 56.9762 34.3441C57.4363 34.0191 57.8144 33.6249 58.1053 33.1621Z" fill="white"/>
<path d="M46.6754 53.0833C46.4249 52.7079 46.1405 52.5206 45.8251 52.5206C45.7905 52.5206 45.709 52.6266 45.578 52.8456C45.4463 53.0642 45.384 53.1926 45.384 53.2304C45.384 53.3147 45.4594 53.43 45.6154 53.5711C45.7714 53.7116 45.897 53.7836 45.9941 53.7836C46.0782 53.7836 46.1284 53.7618 46.1468 53.7245C46.1622 53.6838 46.2031 53.6647 46.2654 53.6647C46.3565 53.6647 46.5064 53.9335 46.7221 54.475C46.9379 55.0159 47.0446 55.3783 47.0446 55.5663C47.0446 55.6849 47.0663 55.744 47.113 55.744C47.1632 55.744 47.2258 55.6789 47.2977 55.5472C47.4007 55.3566 47.4943 55.0281 47.5793 54.5625C47.7699 53.4959 47.9795 52.9612 48.2042 52.9612C48.3074 52.9612 48.4078 53.0208 48.5014 53.1429C48.5985 53.2645 48.6609 53.3269 48.6894 53.3269C48.758 53.3269 48.8177 53.2461 48.8673 53.0894C48.9079 52.9705 48.9268 52.8736 48.9268 52.7989C48.9268 52.7018 48.8706 52.5797 48.758 52.4263C48.627 52.2513 48.4988 52.1638 48.3671 52.1638C48.114 52.1638 47.8791 52.4202 47.6634 52.936C47.4665 53.6526 47.3416 54.1934 47.2914 54.5558C47.2819 54.5797 47.2743 54.6 47.2681 54.6164C47.2579 54.6432 47.2517 54.6598 47.2475 54.6657C47.2412 54.684 47.2351 54.684 47.223 54.6657C47.223 54.6596 47.2202 54.6419 47.2156 54.6133L47.2121 54.5907L47.2091 54.5719L47.2067 54.5558C47.1035 53.9491 46.9285 53.4585 46.6754 53.0833Z" fill="white"/>
<path d="M57.9622 37.3992C57.7464 36.9833 57.5307 36.7769 57.3149 36.7769C57.2897 36.7769 57.2307 36.8551 57.1363 37.0111C57.0462 37.1678 56.9993 37.2614 56.9993 37.2901C56.9993 37.349 57.0555 37.4305 57.1648 37.5336C57.2776 37.6334 57.3677 37.687 57.437 37.687C57.4994 37.687 57.534 37.6714 57.5463 37.6429C57.5592 37.6151 57.587 37.6021 57.6339 37.6021C57.6934 37.6021 57.815 37.8682 57.9935 38.4062C58.1686 38.9281 58.2561 39.2566 58.2561 39.397C58.2561 39.4819 58.2716 39.5254 58.3029 39.5254C58.3409 39.5254 58.3843 39.4785 58.4373 39.3848C58.5125 39.2445 58.5784 39.0096 58.6407 38.675C58.8315 37.6212 59.0031 37.0959 59.1539 37.0959C59.2258 37.0959 59.2978 37.1393 59.3662 37.2243C59.4348 37.3118 59.4789 37.3552 59.5007 37.3552C59.5509 37.3552 59.5915 37.2988 59.6289 37.1834C59.6567 37.0987 59.673 37.03 59.673 36.9772C59.673 36.9079 59.6323 36.8177 59.5509 36.7078C59.4572 36.5829 59.3629 36.5205 59.2693 36.5205C59.0846 36.5205 58.9157 36.705 58.763 37.0742C58.6001 37.7338 58.4908 38.2652 58.4311 38.6689L58.4261 38.683C58.4222 38.6941 58.4187 38.7039 58.4157 38.7124C58.4092 38.7311 58.405 38.7432 58.4033 38.7469C58.3965 38.7593 58.3904 38.7593 58.3843 38.7469C58.3843 38.7464 58.3843 38.7457 58.3842 38.7449L58.3839 38.7422C58.3833 38.7382 58.3823 38.7324 58.381 38.7249C58.3787 38.7114 58.3754 38.6921 58.3722 38.6689C58.2933 38.1993 58.1562 37.7772 57.9622 37.3992Z" fill="white"/>
<path d="M58.6363 43.7603C58.4673 43.9258 58.2888 44.0073 58.0981 44.0073C57.6855 44.0073 57.4793 43.7792 57.4793 43.3253C57.4793 42.916 57.6701 42.4315 58.0575 41.8683C58.3953 41.3681 58.7143 41.0242 59.0143 40.843C59.0741 40.8082 59.1112 40.8117 59.1269 40.8524C59.146 40.8993 59.1304 40.9522 59.0741 41.0146C58.8453 41.2243 58.6139 41.5087 58.3825 41.8683C58.1268 42.2564 57.9984 42.5408 57.9951 42.7254C58.1111 42.6283 58.2482 42.5814 58.4049 42.5814C58.7551 42.5814 58.9328 42.7376 58.9328 43.0505C58.9328 43.3347 58.8331 43.573 58.6363 43.7603Z" fill="white"/>
<path d="M34.7863 54.3047C35.0238 53.9356 35.1426 53.6071 35.1426 53.3194C35.1426 52.9285 34.9864 52.7345 34.677 52.7345C34.3018 52.7345 34.0669 52.9726 33.9637 53.4476C33.9483 53.5447 33.9359 53.6038 33.9292 53.6262C33.9483 53.6323 33.9604 53.6383 33.9733 53.6512C33.9889 53.6444 34.0323 53.6199 34.0982 53.576C34.1892 53.5134 34.2922 53.4823 34.405 53.4823C34.6079 53.4823 34.7109 53.5914 34.7109 53.8107C34.7109 54.0448 34.3921 54.5049 33.761 55.1958C33.6293 55.3361 33.5668 55.4211 33.5668 55.4428C33.5668 55.4489 33.5668 55.4522 33.5728 55.4522C33.6015 55.4522 33.6917 55.3959 33.8451 55.2894C34.2299 55.0172 34.5427 54.6888 34.7863 54.3047Z" fill="white"/>
<path d="M43.7597 56.04C43.7719 56.014 43.782 55.9969 43.7943 55.9903C43.8009 55.9817 43.8061 55.9833 43.8094 55.9955C43.8146 56.0055 43.8146 56.0244 43.8094 56.05C43.7838 56.2622 43.7241 56.4518 43.6298 56.6176C43.5341 56.7853 43.4317 56.8688 43.3204 56.8688C43.1991 56.8725 43.1053 56.8091 43.0419 56.6792C42.9788 56.5494 42.9514 56.375 42.9598 56.1561C42.9703 55.886 43.0744 55.4876 43.2711 54.9645C43.4418 54.5048 43.589 54.1798 43.7155 53.9865C43.7719 53.9012 43.8075 53.8567 43.8265 53.8534C43.8299 53.867 43.8146 53.9183 43.7772 54.0021C43.4981 54.6228 43.319 55.1236 43.2366 55.5047C43.2025 55.6567 43.1873 55.7955 43.1873 55.9169C43.1873 56.0878 43.218 56.2159 43.2811 56.3015C43.329 56.3717 43.3787 56.4006 43.4317 56.3902C43.5393 56.368 43.6488 56.2519 43.7597 56.04Z" fill="white"/>
<path fill-rule="evenodd" clip-rule="evenodd" d="M47.4591 13.2723L40.8334 6L34.2076 13.2723L24.8334 10.2872L22.7314 19.8981L13.1206 22L16.1057 31.3742L8.83337 38L16.1057 44.6258L13.1206 54L22.7314 56.1019L24.8334 65.7128L34.2076 62.7277L40.8334 70L47.4591 62.7277L56.8333 65.7128L58.9353 56.1019L68.5462 54L65.561 44.6258L72.8333 38L65.561 31.3742L68.5462 22L58.9353 19.8981L56.8333 10.2872L47.4591 13.2723ZM27.6481 15.1625L35.3732 17.6225L40.8334 11.6295L46.2935 17.6225L54.0186 15.1625L55.7507 23.0826L63.6708 24.8148L61.2109 32.5399L67.2038 38L61.2109 43.4601L63.6708 51.1852L55.7507 52.9174L54.0186 60.8375L46.2935 58.3775L40.8334 64.3705L35.3732 58.3775L27.6481 60.8375L25.916 52.9174L17.9959 51.1852L20.4558 43.4601L14.4629 38L20.4558 32.5399L17.9959 24.8148L25.916 23.0826L27.6481 15.1625Z" fill="white"/>
<path d="M86.0663 38.5897C85.1555 38.5138 84.4438 38.2196 83.9315 37.7073C83.4191 37.1949 83.1629 36.5497 83.1629 35.7716C83.1629 35.1644 83.3147 34.5287 83.6183 33.8645L90.0514 19.5466C90.2602 19.0722 90.5259 18.7211 90.8485 18.4934C91.19 18.2657 91.6075 18.1518 92.1009 18.1518C92.5943 18.1518 93.0023 18.2657 93.3249 18.4934C93.6665 18.7211 93.9417 19.0722 94.1504 19.5466L100.583 33.8645C100.887 34.5287 101.039 35.1549 101.039 35.7432C101.039 36.5402 100.783 37.1949 100.27 37.7073C99.758 38.2196 99.0369 38.5138 98.107 38.5897L95.716 33.3806H88.4574L86.0663 38.5897ZM94.435 29.794L91.5032 22.5069L91.1046 22.6777L91.8732 24.5849L89.7099 29.794H94.435ZM108.447 38.5897C106.796 38.5897 105.553 38.1248 104.718 37.1949C103.883 36.2461 103.465 35.0505 103.465 33.6083V20.429C103.465 19.613 103.778 19.0342 104.405 18.6926C105.05 18.3321 106.037 18.1518 107.365 18.1518V33.466C107.365 34.0922 107.507 34.5476 107.792 34.8323C108.077 35.098 108.523 35.2308 109.13 35.2308C109.851 35.2308 110.563 35.041 111.265 34.6615C111.474 34.8513 111.635 35.0885 111.749 35.3731C111.882 35.6578 111.948 35.9424 111.948 36.2271C111.948 36.8343 111.644 37.3847 111.037 37.8781C110.449 38.3525 109.585 38.5897 108.447 38.5897ZM126.035 41.7208C126.035 43.4287 124.716 44.2827 122.078 44.2827V37.7927C122.401 37.5649 122.61 37.3752 122.705 37.2234L122.591 37.081C122.097 37.5555 121.433 37.9255 120.598 38.1912C119.782 38.4568 119.042 38.5897 118.378 38.5897C116.689 38.5897 115.342 38.1153 114.336 37.1664C113.33 36.1986 112.827 34.9556 112.827 33.4375V29.0254C112.827 28.0386 113.074 27.1562 113.567 26.3782C114.08 25.5812 114.744 24.9644 115.56 24.528C116.395 24.0725 117.277 23.8448 118.207 23.8448C119.251 23.8448 120.133 24.0535 120.854 24.471C121.594 24.8695 122.259 25.4673 122.847 26.2643L122.989 26.1505C122.894 25.9797 122.714 25.733 122.448 25.4104C122.448 24.3667 123.644 23.8448 126.035 23.8448V41.7208ZM119.431 27.2037C118.558 27.2037 117.885 27.384 117.41 27.7445C116.955 28.1051 116.727 28.6269 116.727 29.3101V33.1529C116.727 33.817 116.955 34.3294 117.41 34.69C117.885 35.0505 118.558 35.2308 119.431 35.2308C120.228 35.2308 120.873 35.041 121.367 34.6615C121.879 34.282 122.135 33.817 122.135 33.2667V29.1678C122.135 28.5985 121.879 28.1335 121.367 27.773C120.873 27.3934 120.228 27.2037 119.431 27.2037ZM141.937 35.6293C141.937 36.5782 141.624 37.3088 140.998 37.8211C140.372 38.3335 139.442 38.5897 138.208 38.5897V36.9102C138.493 36.6066 138.73 36.284 138.92 35.9424L138.721 35.8286C137.525 37.6693 135.912 38.5897 133.882 38.5897C132.933 38.5897 132.07 38.3714 131.291 37.935C130.513 37.4795 129.897 36.8533 129.441 36.0563C129.005 35.2403 128.787 34.3199 128.787 33.2952V26.122C128.787 25.306 129.1 24.7272 129.726 24.3856C130.371 24.0251 131.358 23.8448 132.686 23.8448V33.0105C132.686 33.6937 132.895 34.2345 133.312 34.633C133.73 35.0316 134.337 35.2308 135.134 35.2308C136.045 35.2308 136.757 34.9462 137.269 34.3769C137.781 33.7886 138.038 33.039 138.038 32.1281V26.122C138.038 25.306 138.351 24.7272 138.977 24.3856C139.622 24.0251 140.609 23.8448 141.937 23.8448V35.6293ZM152.796 27.2037C151.658 27.2037 150.737 27.4978 150.035 28.0861C149.333 28.6744 148.982 29.4145 148.982 30.3064V36.3125C148.982 37.1285 148.659 37.7168 148.014 38.0773C147.388 38.4189 146.41 38.5897 145.082 38.5897V26.8052C145.082 25.8563 145.395 25.1257 146.021 24.6134C146.648 24.101 147.578 23.8448 148.811 23.8448V25.5242C148.526 25.8279 148.289 26.1505 148.099 26.492L148.299 26.6059C149.494 24.7652 150.984 23.8448 152.768 23.8448C153.622 23.8448 154.267 24.0725 154.703 24.528C155.14 24.9834 155.358 25.5622 155.358 26.2643C155.358 26.7957 155.216 27.2606 154.931 27.6591C154.4 27.3555 153.688 27.2037 152.796 27.2037ZM161.093 38.5897C160.163 38.5897 159.29 38.4094 158.474 38.0488C157.677 37.6693 157.032 37.1285 156.539 36.4263C156.045 35.7052 155.799 34.8418 155.799 33.836C155.799 32.8303 156.064 31.9668 156.596 31.2457C157.127 30.5056 157.829 29.9458 158.702 29.5663C159.594 29.1867 160.562 28.997 161.606 28.997C162.479 28.997 163.247 29.1298 163.911 29.3955C164.594 29.6612 165.23 30.0502 165.818 30.5625L165.961 30.3918C165.562 30.0312 165.249 29.775 165.021 29.6232V29.2532C165.021 28.532 164.756 27.9627 164.224 27.5453C163.712 27.1088 162.981 26.8906 162.033 26.8906C161.198 26.8906 160.458 27.0424 159.812 27.346C159.167 27.6496 158.645 28.0956 158.247 28.6839C157.791 28.57 157.402 28.3613 157.08 28.0576C156.776 27.735 156.624 27.384 156.624 27.0044C156.624 26.4161 156.88 25.8848 157.393 25.4104C157.905 24.917 158.598 24.5375 159.471 24.2718C160.363 23.9871 161.34 23.8448 162.403 23.8448C164.471 23.8448 166.065 24.3192 167.185 25.2681C168.304 26.2169 168.864 27.5073 168.864 29.1393V36.0563C168.864 36.9482 168.57 37.5934 167.982 37.9919C167.412 38.3904 166.502 38.5897 165.249 38.5897V37.4795C165.534 37.2139 165.761 36.9767 165.932 36.7679L165.79 36.6256C165.164 37.2708 164.509 37.7642 163.826 38.1058C163.143 38.4284 162.232 38.5897 161.093 38.5897ZM162.175 35.8001C163.086 35.8001 163.797 35.6293 164.31 35.2877C164.822 34.9462 165.078 34.4528 165.078 33.8076C165.078 33.1813 164.813 32.6879 164.281 32.3274C163.769 31.9668 163.067 31.7865 162.175 31.7865C161.378 31.7865 160.742 31.9668 160.268 32.3274C159.812 32.6879 159.585 33.1813 159.585 33.8076C159.585 34.4528 159.812 34.9462 160.268 35.2877C160.742 35.6293 161.378 35.8001 162.175 35.8001ZM171.851 26.8052C171.851 25.8563 172.165 25.1257 172.791 24.6134C173.417 24.101 174.347 23.8448 175.58 23.8448V25.5242C175.296 25.8279 175.059 26.1505 174.869 26.492L175.068 26.6059C175.637 25.733 176.358 25.0593 177.231 24.5849C178.123 24.0915 179.11 23.8448 180.192 23.8448C181.141 23.8448 181.976 24.063 182.697 24.4995C183.437 24.936 184.015 25.5432 184.433 26.3213C184.85 27.0803 185.059 27.9343 185.059 28.8831V36.3125C185.059 37.1285 184.737 37.7168 184.091 38.0773C183.446 38.4189 182.469 38.5897 181.16 38.5897V29.4809C181.16 28.8357 180.951 28.2948 180.533 27.8584C180.135 27.4219 179.565 27.2037 178.825 27.2037C177.914 27.2037 177.174 27.4978 176.605 28.0861C176.036 28.6744 175.751 29.4145 175.751 30.3064V36.3125C175.751 37.1285 175.429 37.7168 174.783 38.0773C174.157 38.4189 173.18 38.5897 171.851 38.5897V26.8052Z" fill="white"/>
<path d="M85.0682 44.5324C85.0682 44.2788 85.1549 44.0719 85.3285 43.9118C85.5153 43.7382 85.7489 43.6515 86.0292 43.6515H91.8757C92.7567 43.6515 93.5376 43.8383 94.2183 44.2121C94.8991 44.5725 95.4263 45.0864 95.8001 45.7538C96.1738 46.4079 96.3607 47.162 96.3607 48.0163C96.3607 48.8973 96.1738 49.6715 95.8001 50.3389C95.4397 51.0063 94.9191 51.5202 94.2383 51.8806C93.5576 52.241 92.77 52.4212 91.8757 52.4212H86.9503V56.2855C86.9503 56.7927 86.7901 57.1798 86.4697 57.4467C86.1494 57.7137 85.6822 57.8472 85.0682 57.8472V44.5324ZM91.8757 50.7593C92.6766 50.7593 93.3106 50.5191 93.7778 50.0385C94.245 49.5447 94.4786 48.8706 94.4786 48.0163C94.4786 47.1887 94.2383 46.5347 93.7578 46.0541C93.2906 45.5602 92.6633 45.3133 91.8757 45.3133H86.9503V50.7593H91.8757ZM101.372 57.8472C100.558 57.8472 99.8302 57.6937 99.1894 57.3867C98.5487 57.0663 98.0482 56.6325 97.6878 56.0852C97.3274 55.5246 97.1472 54.8973 97.1472 54.2032V51.2399C97.1472 50.5324 97.3341 49.8917 97.7078 49.3177C98.0949 48.7438 98.6088 48.2966 99.2495 47.9763C99.9036 47.6426 100.611 47.4757 101.372 47.4757C102.133 47.4757 102.827 47.6359 103.454 47.9562C104.095 48.2766 104.595 48.7171 104.956 49.2777C105.33 49.8383 105.516 50.4724 105.516 51.1798V52.4612C105.516 52.6748 105.436 52.855 105.276 53.0018C105.116 53.1487 104.922 53.2221 104.696 53.2221H98.8491V54.1231C98.8491 54.8038 99.0626 55.3511 99.4898 55.7649C99.9303 56.1787 100.558 56.3856 101.372 56.3856C102.186 56.3856 102.807 56.2054 103.234 55.845C103.661 55.4846 103.875 54.9974 103.875 54.3834C104.275 54.3567 104.609 54.4367 104.876 54.6236C105.156 54.7971 105.296 55.0574 105.296 55.4045C105.296 55.8316 105.109 56.2321 104.736 56.6058C104.375 56.9796 103.895 57.2799 103.294 57.5068C102.693 57.7337 102.053 57.8472 101.372 57.8472ZM103.895 51.8606V51.1798C103.895 50.5124 103.661 49.9718 103.194 49.558C102.74 49.1309 102.133 48.9173 101.372 48.9173C100.611 48.9173 99.997 49.1309 99.5298 49.558C99.076 49.9718 98.8491 50.5124 98.8491 51.1798V51.8606H103.895ZM112.173 49.0174C111.425 49.0174 110.804 49.2443 110.311 49.6982C109.817 50.1387 109.57 50.6793 109.57 51.32V56.5658C109.57 57.0063 109.423 57.3333 109.129 57.5469C108.849 57.7471 108.415 57.8472 107.828 57.8472V48.9573C107.828 47.9696 108.388 47.4757 109.51 47.4757V48.6971C109.296 48.924 109.149 49.1242 109.069 49.2977L109.149 49.3778C110.004 48.1097 111.071 47.4757 112.353 47.4757C112.833 47.4757 113.2 47.5958 113.454 47.8361C113.708 48.063 113.834 48.3433 113.834 48.677C113.834 48.9173 113.774 49.1309 113.654 49.3177C113.28 49.1175 112.787 49.0174 112.173 49.0174ZM119.058 57.8472C118.377 57.8472 117.736 57.7471 117.136 57.5469C116.535 57.3333 116.048 57.033 115.674 56.6459C115.314 56.2588 115.134 55.8049 115.134 55.2844C115.134 54.6436 115.521 54.2966 116.295 54.2432C116.428 54.9907 116.742 55.5446 117.236 55.905C117.743 56.2521 118.384 56.4256 119.158 56.4256C119.932 56.4256 120.533 56.3122 120.96 56.0852C121.387 55.8583 121.601 55.5113 121.601 55.0441C121.601 54.7104 121.514 54.4434 121.34 54.2432C121.167 54.0296 120.887 53.8494 120.499 53.7026C120.126 53.5424 119.585 53.3889 118.878 53.2421C117.997 53.0419 117.296 52.8283 116.775 52.6014C116.255 52.3745 115.854 52.0741 115.574 51.7004C115.307 51.3266 115.174 50.8328 115.174 50.2187C115.174 49.6982 115.334 49.231 115.654 48.8172C115.974 48.39 116.415 48.063 116.976 47.8361C117.55 47.5958 118.197 47.4757 118.918 47.4757C119.585 47.4757 120.212 47.5691 120.8 47.756C121.4 47.9429 121.881 48.2098 122.241 48.5569C122.615 48.904 122.802 49.3044 122.802 49.7582C122.802 50.0652 122.682 50.3122 122.442 50.4991C122.201 50.6726 121.868 50.7727 121.441 50.7994C121.4 50.2121 121.16 49.7516 120.72 49.4179C120.293 49.0708 119.692 48.8973 118.918 48.8973C118.277 48.8973 117.77 49.0174 117.396 49.2577C117.022 49.4979 116.835 49.8183 116.835 50.2187C116.835 50.6459 117.009 50.9662 117.356 51.1798C117.716 51.38 118.324 51.5736 119.178 51.7604C120.58 52.0408 121.607 52.4279 122.261 52.9217C122.929 53.4023 123.263 54.0897 123.263 54.984C123.263 55.8917 122.895 56.5991 122.161 57.1064C121.427 57.6003 120.393 57.8472 119.058 57.8472ZM126.884 45.974C126.51 45.974 126.196 45.8539 125.943 45.6136C125.689 45.3734 125.562 45.073 125.562 44.7126C125.562 44.3522 125.689 44.0586 125.943 43.8317C126.196 43.5914 126.51 43.4713 126.884 43.4713C127.244 43.4713 127.551 43.5914 127.805 43.8317C128.058 44.0586 128.185 44.3522 128.185 44.7126C128.185 45.073 128.058 45.3734 127.805 45.6136C127.551 45.8539 127.244 45.974 126.884 45.974ZM126.003 48.7571C126.003 48.3166 126.143 47.9963 126.423 47.7961C126.717 47.5825 127.157 47.4757 127.745 47.4757V56.5658C127.745 57.0063 127.598 57.3333 127.304 57.5469C127.024 57.7471 126.59 57.8472 126.003 57.8472V48.7571ZM134.622 57.8472C133.941 57.8472 133.301 57.7471 132.7 57.5469C132.099 57.3333 131.612 57.033 131.238 56.6459C130.878 56.2588 130.698 55.8049 130.698 55.2844C130.698 54.6436 131.085 54.2966 131.859 54.2432C131.992 54.9907 132.306 55.5446 132.8 55.905C133.307 56.2521 133.948 56.4256 134.722 56.4256C135.496 56.4256 136.097 56.3122 136.524 56.0852C136.951 55.8583 137.165 55.5113 137.165 55.0441C137.165 54.7104 137.078 54.4434 136.905 54.2432C136.731 54.0296 136.451 53.8494 136.064 53.7026C135.69 53.5424 135.149 53.3889 134.442 53.2421C133.561 53.0419 132.86 52.8283 132.339 52.6014C131.819 52.3745 131.418 52.0741 131.138 51.7004C130.871 51.3266 130.738 50.8328 130.738 50.2187C130.738 49.6982 130.898 49.231 131.218 48.8172C131.539 48.39 131.979 48.063 132.54 47.8361C133.114 47.5958 133.761 47.4757 134.482 47.4757C135.149 47.4757 135.777 47.5691 136.364 47.756C136.965 47.9429 137.445 48.2098 137.806 48.5569C138.179 48.904 138.366 49.3044 138.366 49.7582C138.366 50.0652 138.246 50.3122 138.006 50.4991C137.765 50.6726 137.432 50.7727 137.005 50.7994C136.965 50.2121 136.724 49.7516 136.284 49.4179C135.857 49.0708 135.256 48.8973 134.482 48.8973C133.841 48.8973 133.334 49.0174 132.96 49.2577C132.586 49.4979 132.4 49.8183 132.4 50.2187C132.4 50.6459 132.573 50.9662 132.92 51.1798C133.28 51.38 133.888 51.5736 134.742 51.7604C136.144 52.0408 137.171 52.4279 137.826 52.9217C138.493 53.4023 138.827 54.0897 138.827 54.984C138.827 55.8917 138.46 56.5991 137.725 57.1064C136.991 57.6003 135.957 57.8472 134.622 57.8472ZM141.947 57.8472C141.574 57.8472 141.26 57.7271 141.006 57.4868C140.753 57.2332 140.626 56.9195 140.626 56.5458C140.626 56.172 140.753 55.8583 141.006 55.6047C141.26 55.3511 141.574 55.2243 141.947 55.2243C142.308 55.2243 142.621 55.3578 142.888 55.6247C143.155 55.8783 143.289 56.1854 143.289 56.5458C143.289 56.9061 143.155 57.2132 142.888 57.4668C142.621 57.7204 142.308 57.8472 141.947 57.8472ZM149.589 57.8472C148.775 57.8472 148.047 57.7004 147.406 57.4067C146.766 57.113 146.265 56.6993 145.905 56.1653C145.558 55.6314 145.384 55.0241 145.384 54.3433V51.0997C145.384 50.3923 145.558 49.7649 145.905 49.2176C146.265 48.6704 146.759 48.2432 147.386 47.9362C148.014 47.6292 148.735 47.4757 149.549 47.4757C150.31 47.4757 150.984 47.5892 151.571 47.8161C152.172 48.0296 152.639 48.3367 152.973 48.7371C153.306 49.1375 153.473 49.5914 153.473 50.0986C153.473 50.4323 153.34 50.7059 153.073 50.9195C152.819 51.1197 152.485 51.2065 152.072 51.1798C152.072 50.5391 151.838 50.0185 151.371 49.6181C150.917 49.2176 150.323 49.0174 149.589 49.0174C148.855 49.0174 148.261 49.2176 147.807 49.6181C147.353 50.0052 147.126 50.5124 147.126 51.1398V54.2632C147.126 54.8639 147.36 55.3578 147.827 55.7449C148.294 56.1186 148.895 56.3055 149.629 56.3055C150.363 56.3055 150.957 56.1053 151.411 55.7048C151.878 55.3044 152.112 54.7905 152.112 54.1631C152.539 54.1364 152.879 54.2232 153.133 54.4234C153.4 54.6103 153.533 54.8772 153.533 55.2243C153.533 55.7315 153.366 56.1854 153.033 56.5858C152.699 56.9862 152.232 57.2999 151.631 57.5268C151.03 57.7404 150.35 57.8472 149.589 57.8472ZM159.126 57.8472C158.312 57.8472 157.571 57.6937 156.904 57.3867C156.249 57.0797 155.736 56.6659 155.362 56.1453C155.001 55.6114 154.821 55.0174 154.821 54.3633V51.0797C154.821 50.4123 155.001 49.8049 155.362 49.2577C155.736 48.7104 156.249 48.2766 156.904 47.9562C157.558 47.6359 158.298 47.4757 159.126 47.4757C159.954 47.4757 160.694 47.6359 161.348 47.9562C162.016 48.2766 162.53 48.7104 162.89 49.2577C163.264 49.8049 163.451 50.4123 163.451 51.0797V54.3633C163.451 55.0174 163.264 55.6114 162.89 56.1453C162.516 56.6659 162.003 57.0797 161.348 57.3867C160.694 57.6937 159.954 57.8472 159.126 57.8472ZM159.126 56.3455C159.927 56.3455 160.561 56.1587 161.028 55.7849C161.509 55.3978 161.749 54.8973 161.749 54.2832V51.1398C161.749 50.4991 161.509 49.9785 161.028 49.578C160.561 49.1776 159.927 48.9774 159.126 48.9774C158.338 48.9774 157.704 49.1776 157.224 49.578C156.743 49.9785 156.503 50.4991 156.503 51.1398V54.2832C156.503 54.8973 156.737 55.3978 157.204 55.7849C157.684 56.1587 158.325 56.3455 159.126 56.3455ZM166.584 57.8472C166.21 57.8472 165.897 57.7271 165.643 57.4868C165.389 57.2332 165.262 56.9195 165.262 56.5458C165.262 56.172 165.389 55.8583 165.643 55.6047C165.897 55.3511 166.21 55.2243 166.584 55.2243C166.944 55.2243 167.258 55.3578 167.525 55.6247C167.792 55.8783 167.925 56.1854 167.925 56.5458C167.925 56.9061 167.792 57.2132 167.525 57.4668C167.258 57.7204 166.944 57.8472 166.584 57.8472ZM171.543 45.974C171.169 45.974 170.855 45.8539 170.602 45.6136C170.348 45.3734 170.221 45.073 170.221 44.7126C170.221 44.3522 170.348 44.0586 170.602 43.8317C170.855 43.5914 171.169 43.4713 171.543 43.4713C171.903 43.4713 172.21 43.5914 172.464 43.8317C172.717 44.0586 172.844 44.3522 172.844 44.7126C172.844 45.073 172.717 45.3734 172.464 45.6136C172.21 45.8539 171.903 45.974 171.543 45.974ZM170.662 48.7571C170.662 48.3166 170.802 47.9963 171.082 47.7961C171.376 47.5825 171.816 47.4757 172.404 47.4757V56.5658C172.404 57.0063 172.257 57.3333 171.963 57.5469C171.683 57.7471 171.249 57.8472 170.662 57.8472V48.7571ZM179.321 57.8472C178.173 57.8472 177.239 57.5335 176.518 56.9061C175.81 56.2654 175.457 55.4178 175.457 54.3633V50.9395C175.457 50.2588 175.623 49.6581 175.957 49.1375C176.291 48.6036 176.751 48.1965 177.339 47.9162C177.939 47.6225 178.627 47.4757 179.401 47.4757C180.028 47.4757 180.609 47.6092 181.143 47.8761C181.677 48.1298 182.144 48.4701 182.544 48.8973L182.605 48.7972C182.511 48.6637 182.371 48.5169 182.184 48.3567V44.8328C182.184 44.3923 182.331 44.0586 182.625 43.8317C182.918 43.5914 183.359 43.4713 183.946 43.4713V56.4256C183.946 56.8661 183.813 57.2132 183.546 57.4668C183.292 57.7204 182.878 57.8472 182.304 57.8472V56.7259C182.491 56.4857 182.618 56.3122 182.685 56.2054L182.625 56.1253C182.197 56.6592 181.724 57.0797 181.203 57.3867C180.682 57.6937 180.055 57.8472 179.321 57.8472ZM179.701 56.3055C180.409 56.3055 181.003 56.1253 181.483 55.7649C181.964 55.3911 182.204 54.9306 182.204 54.3834V50.9195C182.204 50.3856 181.977 49.9384 181.523 49.578C181.069 49.2043 180.455 49.0174 179.681 49.0174C178.894 49.0174 178.28 49.1976 177.839 49.558C177.412 49.9051 177.199 50.3923 177.199 51.0196V54.2832C177.199 54.9373 177.412 55.4379 177.839 55.7849C178.28 56.132 178.9 56.3055 179.701 56.3055Z" fill="white"/>
</g>
<defs>
<filter id="filter0_d_93_3861" x="0.833374" y="0" width="194.333" height="80" filterUnits="userSpaceOnUse" color-interpolation-filters="sRGB">
<feFlood flood-opacity="0" result="BackgroundImageFix"/>
<feColorMatrix in="SourceAlpha" type="matrix" values="0 0 0 0 0 0 0 0 0 0 0 0 0 0 0 0 0 0 127 0" result="hardAlpha"/>
<feOffset dy="2"/>
<feGaussianBlur stdDeviation="4"/>
<feComposite in2="hardAlpha" operator="out"/>
<feColorMatrix type="matrix" values="0 0 0 0 0 0 0 0 0 0 0 0 0 0 0 0 0 0 0.25 0"/>
<feBlend mode="normal" in2="BackgroundImageFix" result="effect1_dropShadow_93_3861"/>
<feBlend mode="normal" in="SourceGraphic" in2="effect1_dropShadow_93_3861" result="shape"/>
</filter>
</defs>
</svg>
